<svg width="48" height="48" viewBox="0 0 48 48" fill="none" xmlns="http://www.w3.org/2000/svg">
<path d="M30.5626 30.11L30.1099 30.5626C29.86 30.8125 29.4547 30.8125 29.2047 30.5626L24 25.3578L18.7952 30.5625C18.5453 30.8125 18.14 30.8125 17.8901 30.5625L17.4375 30.1099C17.1875 29.86 17.1875 29.4547 17.4375 29.2047L22.6423 24L17.4375 18.7952C17.1875 18.5453 17.1875 18.14 17.4375 17.8901L17.8901 17.4375C18.14 17.1875 18.5453 17.1875 18.7952 17.4375L24 22.6423L29.2047 17.4375C29.4547 17.1875 29.86 17.1875 30.1099 17.4375L30.5626 17.8901C30.8125 18.14 30.8125 18.5453 30.5626 18.7952L25.3578 24L30.5626 29.2047C30.8125 29.4547 30.8125 29.86 30.5626 30.11Z" fill="black"/>
</svg>
